ply
format ascii 1.0
element vertex 41
property float x
property float y
property float z
end_header
0.0	0.0	0.0
2.8	-2.1	0.0
6.0     0.0     0.0
3.8	2.3	0.0
0.0     0.0	0.0
-3.8    -1.8	0.0
-6.50	0.0	0.0
-3.80   1.8     0.0
0.0     0.0     0.0
2.8     -2.1    0.0
6.0     0.0     0.0
3.8     2.3     0.0
0.0     0.0     0.0
-3.8    -1.8    0.0
-6.50   0.0     0.0
-3.80   1.8     0.0
0.0     0.0     0.0
2.8     -2.1    0.0
6.0     0.0     0.0
3.8     2.3     0.0
0.0     0.0     0.0
-3.8    -1.8    0.0
-6.50   0.0     0.0
-3.80   1.8     0.0
0.0     0.0     0.0
2.8     -2.1    0.0
6.0     0.0     0.0
3.8     2.3     0.0
0.0     0.0     0.0
-3.8    -1.8    0.0
-6.50   0.0     0.0
-3.80   1.8     0.0
0.0     0.0     0.0
2.8     -2.1    0.0
6.0     0.0     0.0
3.8     2.3     0.0
0.0     0.0     0.0
-3.8    -1.8    0.0
-6.50   0.0     0.0
-3.80   1.8     0.0
0.0     0.0     0.0
