ply
format ascii 1.0
element vertex 12
property float x
property float y
property float z
end_header
0.006619262695	0.0112829208374	-0.007190713193276
10.36619262695	0.6512829208374	-0.007190713193276
21.33865497589	0.939961338043	0.253184318542
21.1990585327	21.0004888725	0.51208806037
21.7090969849	28.6036569214	0.52320325375
53.6089962769	33.918116941452	0.0082775116
91.5453216553	36.105771017075	0.21645832062
105.200969849	36.31936569214	0.52320325375
107.365497589	7.539961338043	0.253184318542
87.905497589	5.61000338043	0.253184318542
42.705497589	1.839961338043	0.253184318542
0.006619262695	0.0112829208374	-0.007190713193276



