ply
format ascii 1.0
element vertex 108
property float x
property float y
property float z
end_header
15.0	3.0	0.0
30.0	-1.0	0.0
45.0	3.0	0.0
56.0	-10.50	2.02469778061
50.0	0.0	2.02218747139
45.0	3.0	0.0
30.0	-1.0	0.0
15.0	3.0	0.0
5.0	2.0	0.0
15.0	3.0	0.0
30.0	-1.0	0.0
45.0	3.0	0.0
56.0	-10.50	2.02469778061
50.0	0.0	2.02218747139
45.0	3.0	0.0
30.0	-1.0	0.0
15.0	3.0	0.0
5.0	2.0	0.0
15.0	3.0	0.0
30.0	-1.0	0.0
45.0	3.0	0.0
56.0	-10.50	2.02469778061
50.0	0.0	2.02218747139
45.0	3.0	0.0
30.0	-1.0	0.0
15.0	3.0	0.0
5.0	2.0	0.0
15.0	3.0	0.0
30.0	-1.0	0.0
45.0	3.0	0.0
56.0	-10.50	2.02469778061
50.0	0.0	2.02218747139
45.0	3.0	0.0
30.0	-1.0	0.0
15.0	3.0	0.0
5.0	2.0	0.0
15.0	3.0	0.0
30.0	-1.0	0.0
45.0	3.0	0.0
56.0	-10.50	2.02469778061
50.0	0.0	2.02218747139
45.0	3.0	0.0
30.0	-1.0	0.0
15.0	3.0	0.0
5.0	2.0	0.0
15.0	3.0	0.0
30.0	-1.0	0.0
45.0	3.0	0.0
56.0	-10.50	2.02469778061
50.0	0.0	2.02218747139
45.0	3.0	0.0
30.0	-1.0	0.0
15.0	3.0	0.0
5.0	2.0	0.0
15.0	3.0	0.0
30.0	-1.0	0.0
45.0	3.0	0.0
56.0	-10.50	2.02469778061
50.0	0.0	2.02218747139
45.0	3.0	0.0
30.0	-1.0	0.0
15.0	3.0	0.0
5.0	2.0	0.0
15.0	3.0	0.0
30.0	-1.0	0.0
45.0	3.0	0.0
56.0	-10.50	2.02469778061
50.0	0.0	2.02218747139
45.0	3.0	0.0
30.0	-1.0	0.0
15.0	3.0	0.0
5.0	2.0	0.0
15.0	3.0	0.0
30.0	-1.0	0.0
45.0	3.0	0.0
56.0	-10.50	2.02469778061
50.0	0.0	2.02218747139
45.0	3.0	0.0
30.0	-1.0	0.0
15.0	3.0	0.0
5.0	2.0	0.0
15.0	3.0	0.0
30.0	-1.0	0.0
45.0	3.0	0.0
56.0	-10.50	2.02469778061
50.0	0.0	2.02218747139
45.0	3.0	0.0
30.0	-1.0	0.0
15.0	3.0	0.0
5.0	2.0	0.0
15.0	3.0	0.0
30.0	-1.0	0.0
45.0	3.0	0.0
56.0	-10.50	2.02469778061
50.0	0.0	2.02218747139
45.0	3.0	0.0
30.0	-1.0	0.0
15.0	3.0	0.0
5.0	2.0	0.0
15.0	3.0	0.0
30.0	-1.0	0.0
45.0	3.0	0.0
56.0	-10.50	2.02469778061
50.0	0.0	2.02218747139
45.0	3.0	0.0
30.0	-1.0	0.0
15.0	3.0	0.0
0.0	0.0	0.0


