ply
format ascii 1.0
element vertex 9
property float x
property float y
property float z
end_header
37.586479187	-4.02041864395	0.000174177606823
2.58376312256	-0.931671142578	0.000174177606823
0.422222137451	-7.15033721924	0.000174177606823
-0.222629547119	-1.23091745377	0.000174177606823
-14.6335449219	-1.46402740479	0.000174177606823
-14.4998025894	-21.3070011139	0.000174177606823
-14.6335449219	-1.46402740479	0.000174177606823
-0.222629547119	-1.23091745377	0.000174177606823
0.422222137451	-7.15033721924	0.000174177606823



